{
    "asset" : {
        "generator" : "Khronos glTF Blender I/O v1.4.40",
        "version" : "2.0"
    },
    "scene" : 0,
    "scenes" : [
        {
            "name" : "Scene",
            "nodes" : [
                0
            ]
        }
    ],
    "nodes" : [
        {
            "mesh" : 0,
            "name" : "ICON"
        }
    ],
    "materials" : [
        {
            "doubleSided" : true,
            "name" : "tex2",
            "pbrMetallicRoughness" : {
                "baseColorFactor" : [
                    0.9047591686248779,
                    0.01815555803477764,
                    0.03824412450194359,
                    1
                ],
                "metallicFactor" : 0
            }
        },
        {
            "doubleSided" : true,
            "name" : "tex",
            "pbrMetallicRoughness" : {
                "baseColorFactor" : [
                    0.012286187149584293,
                    0.015317335724830627,
                    0.04231017082929611,
                    1
                ],
                "metallicFactor" : 0
            }
        }
    ],
    "meshes" : [
        {
            "name" : "Mesh",
            "primitives" : [
                {
                    "attributes" : {
                        "POSITION" : 0,
                        "NORMAL" : 1,
                        "TEXCOORD_0" : 2
                    },
                    "indices" : 3,
                    "material" : 0
                },
                {
                    "attributes" : {
                        "POSITION" : 4,
                        "NORMAL" : 5,
                        "TEXCOORD_0" : 6
                    },
                    "indices" : 7,
                    "material" : 1
                }
            ]
        }
    ],
    "accessors" : [
        {
            "bufferView" : 0,
            "componentType" : 5126,
            "count" : 600,
            "max" : [
                0.010918095707893372,
                0.030745480209589005,
                0.0025000052992254496
            ],
            "min" : [
                -0.010767563246190548,
                0.0015401934506371617,
                -0.002499999711290002
            ],
            "type" : "VEC3"
        },
        {
            "bufferView" : 1,
            "componentType" : 5126,
            "count" : 600,
            "type" : "VEC3"
        },
        {
            "bufferView" : 2,
            "componentType" : 5126,
            "count" : 600,
            "type" : "VEC2"
        },
        {
            "bufferView" : 3,
            "componentType" : 5123,
            "count" : 2400,
            "type" : "SCALAR"
        },
        {
            "bufferView" : 4,
            "componentType" : 5126,
            "count" : 2671,
            "max" : [
                0.011624389328062534,
                0.03141436725854874,
                0.002499999012798071
            ],
            "min" : [
                -0.011478659696877003,
                8.473198249703273e-06,
                -0.0024999999441206455
            ],
            "type" : "VEC3"
        },
        {
            "bufferView" : 5,
            "componentType" : 5126,
            "count" : 2671,
            "type" : "VEC3"
        },
        {
            "bufferView" : 6,
            "componentType" : 5126,
            "count" : 2671,
            "type" : "VEC2"
        },
        {
            "bufferView" : 7,
            "componentType" : 5123,
            "count" : 9846,
            "type" : "SCALAR"
        }
    ],
    "bufferViews" : [
        {
            "buffer" : 0,
            "byteLength" : 7200,
            "byteOffset" : 0
        },
        {
            "buffer" : 0,
            "byteLength" : 7200,
            "byteOffset" : 7200
        },
        {
            "buffer" : 0,
            "byteLength" : 4800,
            "byteOffset" : 14400
        },
        {
            "buffer" : 0,
            "byteLength" : 4800,
            "byteOffset" : 19200
        },
        {
            "buffer" : 0,
            "byteLength" : 32052,
            "byteOffset" : 24000
        },
        {
            "buffer" : 0,
            "byteLength" : 32052,
            "byteOffset" : 56052
        },
        {
            "buffer" : 0,
            "byteLength" : 21368,
            "byteOffset" : 88104
        },
        {
            "buffer" : 0,
            "byteLength" : 19692,
            "byteOffset" : 109472
        }
    ],
    "buffers" : [
        {
            "byteLength" : 129164,
            "uri" : "Icon.bin"
        }
    ]
}
